<svg xmlns="http://www.w3.org/2000/svg" class=" " viewBox="0 0 1600 800"><path d="M1118.478,113.131C1118.595,118.656,1120.846,124.53,1125.873,129.293C1134.437,137.407,1157.199,146.723,1173.869,148.195C1191.042,149.712,1214.973,143.685,1227.527,137.374C1235.868,133.18,1241.637,127.165,1245.49,121.212C1248.719,116.223,1251.287,110.837,1250.678,105.051C1249.897,97.627,1243.777,86.479,1236.785,80.808C1229.265,74.709,1217.57,72.017,1206.03,70.875C1191.885,69.474,1171.81,71.711,1157.789,76.447C1145.482,80.604,1132.042,88.118,1125.628,95.572C1121.063,100.878,1118.357,107.425,1118.478,113.131" stroke="#0ea5e9" stroke-width="2" fill="none" stroke-linecap="round" stroke-miterlimit="4"></path><path d="M1342.58,759.596C1347.975,764.613,1356.164,767.495,1366.834,769.039C1385.621,771.759,1421.915,769.333,1447.236,762.285C1472.291,755.311,1503.187,739.849,1518.054,727.273C1527.203,719.535,1533.214,710.226,1535.574,703.03C1537.138,698.261,1537.083,693.858,1535.678,689.889C1534.21,685.739,1531.138,681.729,1526.549,678.788C1519.728,674.416,1508.458,671.662,1495.84,670.707C1476.291,669.227,1442.976,672.746,1420.041,678.788C1399.532,684.191,1377.335,694.715,1364.109,703.03C1355.692,708.323,1350.317,712.66,1345.441,719.192C1340.428,725.908,1334.606,735.767,1334.673,742.972C1334.73,749.022,1338.042,755.377,1342.58,759.596" stroke="#0ea5e9" stroke-width="2" fill="none" stroke-linecap="round" stroke-miterlimit="4"></path><path d="M1054.827,121.212C1056.843,132.686,1067.294,146.865,1077.387,156.219C1087.962,166.019,1102.594,172.745,1117.588,177.994C1134.355,183.863,1155.77,186.992,1173.869,188.061C1190.509,189.044,1206.24,188.335,1222.111,185.213C1238.412,182.006,1256.598,176.856,1270.352,168.718C1283.058,161.2,1295.108,150.616,1302.513,139.408C1309.284,129.158,1313.526,115.62,1314.508,105.051C1315.314,96.375,1314.017,88.516,1310.827,80.808C1307.294,72.27,1300.676,63.156,1293.001,56.566C1284.766,49.494,1273.564,44.231,1262.312,40.498C1250.113,36.452,1238.397,34.072,1222.111,34.081C1196.877,34.096,1150.414,41.708,1125.628,49.598C1108.847,54.94,1096.618,61.467,1085.427,69.363C1075.726,76.209,1066.384,83.807,1061.307,92.849C1056.586,101.254,1053.142,111.622,1054.827,121.212" stroke="#0ea5e9" stroke-width="2" fill="none" stroke-linecap="round" stroke-miterlimit="4"></path><path d="M1243.717,796C1243.717,796,1249.716,771.004,1255.19,759.596C1260.715,748.081,1266.393,738.275,1276.809,727.273C1291.974,711.254,1316.988,691.447,1342.714,677.768C1372.513,661.923,1408.825,650.706,1447.236,641.596C1491.98,630.985,1596,621.763,1596,621.763" stroke="#0ea5e9" stroke-width="2" fill="none" stroke-linecap="round" stroke-miterlimit="4"></path><path d="M1449.566,796C1449.566,796,1503.147,779.62,1527.638,767.245C1551.934,754.969,1596,722.18,1596,722.18" stroke="#0ea5e9" stroke-width="2" fill="none" stroke-linecap="round" stroke-miterlimit="4"></path><path d="M1014.883,137.374C1021.002,152.386,1037.785,169.513,1053.266,180.656C1069.186,192.113,1088.676,199.094,1109.548,204.607C1133.555,210.949,1163.857,213.864,1189.95,213.827C1214.708,213.792,1240.978,210.947,1262.312,205.322C1280.394,200.554,1296.498,194.871,1310.553,185.006C1324.805,175.003,1339.05,160.478,1347.063,145.455C1354.774,130.997,1358.649,111.584,1358.648,96.97C1358.648,84.909,1356.001,74.251,1350.754,63.949C1344.945,52.543,1334.487,40.431,1323.71,32.323C1313.018,24.28,1300.476,19.285,1286.432,15.378C1269.911,10.781,1250.09,8.845,1230.151,8.817C1207.545,8.785,1181.674,12.013,1157.789,17.043C1133.423,22.173,1106.643,30.201,1085.427,39.575C1067.203,47.626,1049.695,56.683,1037.186,67.854C1026.577,77.328,1016.692,88.202,1013.065,100.041C1009.57,111.454,1009.964,125.307,1014.883,137.374" stroke="#0ea5e9" stroke-width="2" fill="none" stroke-linecap="round" stroke-miterlimit="4"></path><path d="M1596,583.117C1596,583.117,1472.398,609.743,1423.116,624.988C1385.041,636.765,1353.945,647.455,1323.835,662.626C1296.159,676.57,1273.397,691.18,1248.369,711.111C1219.245,734.303,1161.513,796,1161.513,796" stroke="#0ea5e9" stroke-width="2" fill="none" stroke-linecap="round" stroke-miterlimit="4"></path><path d="M1527.966,796L1596,762.148" stroke="#0ea5e9" stroke-width="2" fill="none" stroke-linecap="round" stroke-miterlimit="4"></path><path d="M1337.616,4C1337.616,4,1364.684,20.754,1373.985,32.323C1383.15,43.724,1389.844,58.25,1393.258,72.727C1396.812,87.795,1396.702,106.013,1394.134,121.212C1391.714,135.534,1386.378,149.466,1379.257,161.616C1372.179,173.692,1362.695,184.915,1351.617,193.939C1339.985,203.416,1328.301,210.532,1310.553,216.581C1282.893,226.007,1233.321,232.69,1197.99,233.942C1166.803,235.047,1136.422,231.897,1109.548,226.657C1086.128,222.091,1064.388,216.35,1045.226,206.554C1027.109,197.292,1009.02,184.374,996.985,170.469C986.369,158.204,977.26,143.394,974.58,129.293C972.082,116.152,974.051,100.844,979.562,88.889C985.279,76.486,996.951,66.158,1009.145,56.566C1023.361,45.383,1042.185,36.244,1061.307,27.838C1082.719,18.425,1132.069,4,1132.069,4" stroke="#0ea5e9" stroke-width="2" fill="none" stroke-linecap="round" stroke-miterlimit="4"></path><path d="M1596,555.04C1596,555.04,1451.342,595.077,1398.995,613.327C1363.331,625.761,1338.731,635.199,1310.553,648.986C1282.964,662.485,1260.419,675.467,1231.533,694.949C1192.775,721.092,1101.508,795.855,1101.508,795.855" stroke="#0ea5e9" stroke-width="2" fill="none" stroke-linecap="round" stroke-miterlimit="4"></path><path d="M1586.506,796L1596,791.486" stroke="#0ea5e9" stroke-width="2" fill="none" stroke-linecap="round" stroke-miterlimit="4"></path><path d="M1392.902,4C1392.902,4,1412.701,26.722,1418.917,40.404C1425.477,54.842,1429.313,72.636,1430.394,88.889C1431.462,104.961,1429.85,121.565,1425.545,137.374C1421.04,153.922,1412.54,172.655,1403.192,185.859C1395.155,197.212,1386.018,205.53,1374.874,213.357C1362.603,221.976,1350.541,228.702,1331.86,234.343C1301.436,243.531,1245.254,249.818,1206.03,251.131C1171.798,252.277,1139.217,249.345,1109.548,244.785C1083.508,240.782,1058.378,235.45,1037.186,227.125C1018.933,219.954,1003.225,212.016,988.945,200.185C973.965,187.773,958.304,169.45,949.948,153.535C943.009,140.319,938.125,126.5,938.737,113.131C939.358,99.561,945.385,84.656,954.044,72.727C963.823,59.258,979.746,48.678,996.985,38.208C1018.39,25.208,1074.733,4,1074.733,4" stroke="#0ea5e9" stroke-width="2" fill="none" stroke-linecap="round" stroke-miterlimit="4"></path><path d="M1596,530.238C1596,530.238,1446.098,578.078,1390.955,598.714C1352.824,612.984,1324.927,624.264,1295.505,638.384C1268.963,651.122,1251.041,660.958,1221.727,678.788C1175.4,706.965,1047.372,796,1047.372,796" stroke="#0ea5e9" stroke-width="2" fill="none" stroke-linecap="round" stroke-miterlimit="4"></path><path d="M1437.203,4C1437.203,4,1453.163,32.377,1457.571,48.485C1462.324,65.852,1464.319,86.254,1463.524,105.051C1462.723,123.965,1459.226,143.998,1452.678,161.616C1446.225,178.979,1435.708,197.487,1424.775,210.101C1415.612,220.674,1405.543,227.563,1393.848,234.343C1381.124,241.721,1369.582,247.11,1350.754,251.86C1318.385,260.026,1256.622,265.621,1214.07,266.706C1176.938,267.653,1141.973,264.852,1109.548,260.719C1080.855,257.062,1053.156,252.627,1029.146,244.727C1008.198,237.834,989.071,229.701,972.675,218.182C956.985,207.159,943.151,193.509,932.275,177.778C920.939,161.381,909.02,138.813,906.712,121.212C904.837,106.916,906.943,93.325,913.385,80.808C920.999,66.012,937.185,52.341,953.906,40.404C974.004,26.057,1028.131,4,1028.131,4" stroke="#0ea5e9" stroke-width="2" fill="none" stroke-linecap="round" stroke-miterlimit="4"></path><path d="M1596,506.298C1596,506.298,1379.338,581.312,1278.392,630.22C1179.415,678.173,995.66,796,995.66,796" stroke="#0ea5e9" stroke-width="2" fill="none" stroke-linecap="round" stroke-miterlimit="4"></path><path d="M1477.864,4C1477.864,4,1490.798,37.923,1493.752,56.566C1496.956,76.795,1497.403,99.811,1495.092,121.212C1492.748,142.913,1487.204,167.501,1479.55,185.859C1473.175,201.15,1465.199,214.159,1455.276,225.089C1445.814,235.513,1434.547,243.514,1421.892,250.505C1408.047,258.153,1395.022,263.458,1374.874,268.13C1341.554,275.855,1282.367,280.283,1238.191,281.433C1196.772,282.511,1154.59,279.626,1117.588,276.003C1085.737,272.885,1055.356,269.057,1029.146,262.621C1007.312,257.26,988.174,251.715,970.453,242.424C953.487,233.529,938.438,223.196,924.623,208.704C908.663,191.961,890.579,166.9,882.595,145.455C875.677,126.872,871.25,105.46,875.415,88.889C879.3,73.434,890.304,60.858,904.187,48.485C923.108,31.622,984.871,4,984.871,4" stroke="#0ea5e9" stroke-width="2" fill="none" stroke-linecap="round" stroke-miterlimit="4"></path><path d="M1596,481.582C1596,481.582,1375.641,566.707,1278.392,614.672C1191.033,657.76,1099.252,720.469,1037.186,752.655C999.513,772.191,944.435,796,944.435,796" stroke="#0ea5e9" stroke-width="2" fill="none" stroke-linecap="round" stroke-miterlimit="4"></path><path d="M1518.023,4C1518.023,4,1527.686,43.421,1529.312,64.646C1531.079,87.698,1530.091,113.989,1527.051,137.374C1524.148,159.705,1519.583,183.494,1512.088,202.02C1505.771,217.636,1497.744,231.398,1487.792,242.424C1478.551,252.664,1467.754,260.096,1455.276,266.827C1441.263,274.386,1427.581,279.676,1407.035,284.196C1373.425,291.589,1322.719,295.878,1270.352,296.176C1199.669,296.579,1076.737,287.258,1021.106,277.188C992.311,271.975,976.118,267.316,956.784,258.545C938.902,250.432,923.899,242.436,908.543,227.644C888.247,208.094,862.587,171.385,851.449,145.455C842.986,125.753,836.904,105.678,839.729,88.889C842.278,73.738,851.307,60.797,863.82,48.485C880.999,31.581,940.704,4.31,940.704,4.31" stroke="#0ea5e9" stroke-width="2" fill="none" stroke-linecap="round" stroke-miterlimit="4"></path><path d="M1596,454.081C1596,454.081,1367.147,554.969,1265.144,606.061C1174.591,651.417,1082.252,709.167,1013.065,743.15C966.304,766.117,893.118,796,893.118,796" stroke="#0ea5e9" stroke-width="2" fill="none" stroke-linecap="round" stroke-miterlimit="4"></path><path d="M106.999,541.414C108.908,547.997,115.67,552.963,123.134,557.576C133.973,564.275,152.616,569.219,168.844,572.774C186.439,576.628,201.513,578.224,225.126,579.007C264.935,580.328,349.851,578.681,385.93,571.932C404.973,568.37,418.134,565.181,428.413,557.576C436.798,551.372,445.66,540.647,445.817,533.333C445.943,527.449,440.936,521.841,435.233,517.172C426.68,510.169,412.542,505.553,394.901,501.01C364.321,493.135,305.393,486.255,265.327,484.993C230.853,483.907,196.163,483.972,168.844,490.792C146.983,496.249,121.656,505.326,112.563,516.55C106.729,523.752,104.983,534.461,106.999,541.414" stroke="#0ea5e9" stroke-width="2" fill="none" stroke-linecap="round" stroke-miterlimit="4"></path><path d="M1559.438,4C1559.438,4,1564.724,114.106,1561.592,153.535C1559.517,179.655,1556.347,199.52,1550.299,218.182C1545.293,233.627,1539.077,247.503,1530.589,258.586C1522.902,268.623,1513.496,276.202,1502.807,282.828C1491.299,289.963,1480.674,294.796,1463.317,299.176C1433.125,306.793,1386.738,311.267,1334.673,312.321C1254.569,313.944,1097.97,302.978,1029.146,293.559C993.476,288.677,971.725,284.312,948.744,276.362C930.168,269.936,914.317,262.433,900.503,252.737C887.896,243.89,878.643,233.973,868.342,221.646C856.164,207.074,843.846,186.99,833.566,169.697C823.945,153.515,813.569,136.077,808.15,121.212C803.936,109.654,799.855,100.155,801.044,88.889C802.447,75.601,808.762,59.474,820.101,46.976C835.587,29.904,894.467,4,894.467,4" stroke="#0ea5e9" stroke-width="2" fill="none" stroke-linecap="round" stroke-miterlimit="4"></path><path d="M1596,419.245C1596,419.245,1514.552,468.147,1453.376,501.01C1347.469,557.903,1126.463,669.269,1013.065,722.115C943.256,754.647,841.58,796,841.58,796" stroke="#0ea5e9" stroke-width="2" fill="none" stroke-linecap="round" stroke-miterlimit="4"></path><path d="M26.385,541.414C26.615,547.363,27.888,552.219,31.637,557.576C37.344,565.728,49.69,575.439,62.645,581.818C79.283,590.011,102.413,594.157,125.52,597.98C153.003,602.527,183.058,603.653,217.085,604.983C259.802,606.651,320.661,607.494,361.809,605.239C392.575,603.552,418.592,602.451,442.211,596.255C462.135,591.027,483.063,581.866,495.19,573.737C502.856,568.599,507.286,564.029,511.555,557.576C516.101,550.704,521.383,541.944,521.162,533.333C520.903,523.281,514.654,509.302,506.39,501.01C497.183,491.772,485.63,487.864,466.332,482.537C423.398,470.688,304.058,461.889,249.246,459.326C215.982,457.771,194.072,458.147,168.844,460.378C146.129,462.387,124.09,465.16,104.523,470.979C86.928,476.211,68.941,483.335,56.281,492.217C45.974,499.448,37.077,508.486,32.161,517.496C28.035,525.057,26.108,534.255,26.385,541.414" stroke="#0ea5e9" stroke-width="2" fill="none" stroke-linecap="round" stroke-miterlimit="4"></path><path d="M1596,278.256C1596,278.256,1588.605,317.49,1575.879,327.381C1561.803,338.322,1542.769,335.12,1511.558,336.404C1429.315,339.788,1169.676,322.754,1061.307,310.648C999.494,303.743,949.315,297.079,916.583,286.496C898.525,280.657,888.035,274.555,876.571,266.667C866.314,259.609,860.655,255.046,850.298,242.424C827.063,214.105,766.308,118.714,756.451,88.889C752.825,77.92,752.538,72.462,754.268,64.646C756.124,56.261,760.256,48.169,768.322,40.404C781.675,27.549,836.181,4.439,836.181,4.439" stroke="#0ea5e9" stroke-width="2" fill="none" stroke-linecap="round" stroke-miterlimit="4"></path><path d="M1596,341.937C1596,341.937,1584.029,348.271,1575.879,355.451C1558.724,370.566,1532.139,412.372,1505.234,436.364C1477.527,461.072,1454.574,475.396,1411.437,501.01C1326.909,551.201,1135.056,645.606,1021.106,698.407C934.813,738.392,790.028,796,790.028,796" stroke="#0ea5e9" stroke-width="2" fill="none" stroke-linecap="round" stroke-miterlimit="4"></path><path d="M4,603.772C4,603.772,88.671,619.699,144.724,623.693C226.907,629.548,392.527,630.513,450.251,624.188C473.47,621.645,483.522,619.086,498.492,613.407C512.925,607.931,527.479,600.717,538.693,591.163C549.503,581.955,559.257,569.297,565.03,557.576C570.135,547.212,572.97,535.287,573.295,525.253C573.575,516.625,572.515,508.597,568.745,501.01C564.401,492.267,556.105,483.125,546.734,476.75C536.001,469.448,521.285,465.381,506.533,461.578C489.561,457.204,476.481,456.03,450.251,453.438C390.217,447.505,220.542,435.469,152.764,437.543C117.437,438.625,97.308,440.669,72.362,446.796C49.342,452.449,8.04,471.529,8.04,471.529" stroke="#0ea5e9" stroke-width="2" fill="none" stroke-linecap="round" stroke-miterlimit="4"></path><path d="M455.55,4C455.55,4,479.189,26.254,498.492,33.031C528.952,43.725,596.808,35.946,627.136,43.455C644.789,47.825,652.532,50.375,667.337,60.667C692.697,78.298,729.063,120.234,755.779,153.657C782.708,187.347,804.142,237.548,828.141,262.121C844.276,278.643,856.861,287.404,876.382,295.982C900.577,306.614,924.561,309.034,964.824,315.394C1049.009,328.692,1280.614,340.32,1358.794,353.832C1392.535,359.664,1412.272,362.739,1430.321,371.717C1443.387,378.217,1456.17,386.697,1460.411,395.96C1463.771,403.298,1462.369,411.969,1459.589,420.202C1456.037,430.727,1448.545,440.779,1436.649,452.525C1415.276,473.63,1375.973,498.779,1331.381,525.253C1261.808,566.557,1149.597,621.267,1053.266,665.459C952.695,711.596,739.698,795.554,739.698,795.554" stroke="#0ea5e9" stroke-width="2" fill="none" stroke-linecap="round" stroke-miterlimit="4"></path><path d="M723.618,4.337L657.606,4" stroke="#0ea5e9" stroke-width="2" fill="none" stroke-linecap="round" stroke-miterlimit="4"></path><path d="M4,638.986C4,638.986,337.804,652.442,426.131,650.065C466.618,648.975,491.104,648.098,514.573,642.97C530.873,639.408,542.727,635.483,554.774,628.286C566.855,621.068,578.081,611.095,586.935,599.684C596.223,587.714,603.609,572.513,608.636,557.576C613.76,542.35,617.341,523.23,617.129,509.091C616.963,498.04,614.845,488.039,611.055,479.644C607.683,472.172,604.497,466.235,596.743,460.606C583.463,450.966,562.321,444.246,530.653,437.996C456.928,423.444,249.062,414.947,152.764,415.259C93.157,415.453,8.04,424.909,8.04,424.909" stroke="#0ea5e9" stroke-width="2" fill="none" stroke-linecap="round" stroke-miterlimit="4"></path><path d="M378.09,4C378.09,4,386.802,30.589,395.738,40.404C405.156,50.75,415.788,56.87,434.171,63.711C470.895,77.377,565.744,79.685,611.055,93.597C641.229,102.861,661.491,111.656,683.417,126.646C706.079,142.139,725.989,162.187,744.369,185.859C765.449,213.007,781.183,261.493,799.964,282.828C811.935,296.428,821.124,303.231,836.181,310.233C855.426,319.182,874.961,321.405,908.543,326.625C982.837,338.173,1191.268,344.363,1270.352,357.688C1309.722,364.322,1336.472,371.566,1357.594,379.798C1370.579,384.859,1380.061,389.715,1387.525,395.96C1393.343,400.826,1398.48,405.317,1400.4,412.121C1402.811,420.663,1400.932,434.313,1396.418,444.444C1391.241,456.064,1382.273,464.741,1368.312,476.768C1342.151,499.305,1290.895,530.241,1241.449,557.576C1177.35,593.01,1091.777,633.771,1013.065,665.886C932.678,698.685,821.79,725.073,763.819,751.8C730.494,767.165,688.739,796,688.739,796" stroke="#0ea5e9" stroke-width="2" fill="none" stroke-linecap="round" stroke-miterlimit="4"></path><path d="M4,665.43C4,665.43,159.951,660.015,241.206,661.525C327.199,663.123,445.883,677.082,506.533,675.765C538.258,675.075,560.638,673.948,578.894,668.719C590.982,665.257,599.48,661.337,607.445,654.545C615.66,647.539,621.025,640.576,627.136,626.929C639.799,598.646,659.208,519.783,659.287,484.848C659.333,464.451,657.308,447.79,648.545,436.364C640.46,425.821,630.214,421.781,611.055,416.829C561.616,404.052,420.506,415.304,329.648,409.664C243.946,404.344,138.455,393.384,80.402,385.024C48.921,380.492,8.04,371.297,8.04,371.297" stroke="#0ea5e9" stroke-width="2" fill="none" stroke-linecap="round" stroke-miterlimit="4"></path><path d="M324.751,4C324.751,4,327.108,35.783,334.414,48.485C341.917,61.53,355.591,72.819,369.849,80.891C385.617,89.818,402.098,92.357,426.131,97.657C467.095,106.691,549.775,108.886,594.975,122.245C627.521,131.864,653.153,143.269,675.377,159.132C695.201,173.283,710.672,188.72,723.922,210.101C739.964,235.987,745.11,285.634,759.154,307.071C767.865,320.367,775.601,328.158,787.94,334.396C802.748,341.882,818.93,341.892,844.221,344.448C895.303,349.609,1011.199,346.16,1077.387,350.202C1126.66,353.212,1166.031,355.849,1206.03,362.761C1241.839,368.949,1280.832,375.722,1306.528,387.879C1325.117,396.673,1344.07,407.638,1350.046,420.202C1354.663,429.908,1352.527,442.361,1348.624,452.525C1344.184,464.09,1335.465,472.864,1321.988,484.848C1296.548,507.472,1245.157,539.507,1196.514,565.657C1135.405,598.508,1057.333,634.087,980.905,660.485C899.208,688.703,766.913,707.619,720.189,727.273C701.509,735.13,695.57,739.789,683.417,749.594C668.601,761.548,639.436,796,639.436,796" stroke="#0ea5e9" stroke-width="2" fill="none" stroke-linecap="round" stroke-miterlimit="4"></path><path d="M4,688.99C4,688.99,167.933,675.866,249.246,678.441C330.078,681.001,436.229,694.878,490.452,704.18C518.496,708.99,536.49,712.862,553.576,719.192C566.171,723.858,577.243,728.013,584.912,735.354C591.739,741.887,597.402,750.392,598.795,759.596C600.406,770.231,590.675,796,590.675,796" stroke="#0ea5e9" stroke-width="2" fill="none" stroke-linecap="round" stroke-miterlimit="4"></path><path d="M277.596,4C277.596,4,274.568,55.283,283.209,72.727C290.443,87.333,304.57,97.279,319.15,105.051C335.472,113.751,352.468,115.04,377.889,119.861C423.448,128.502,528.294,134.816,570.854,144.669C592.633,149.71,604.097,153.993,619.095,161.038C633.563,167.834,647.765,176.05,659.479,185.859C670.674,195.232,681.165,206.01,688.274,218.182C695.335,230.271,700.346,244.936,702.091,258.586C703.792,271.882,702.781,285.893,699.052,298.99C695.097,312.875,686.849,328.916,678.026,339.394C670.443,348.401,661.568,354.129,651.256,359.788C639.623,366.171,628.924,370.116,611.055,374.587C578.055,382.843,514.686,391.773,466.332,394.628C418.202,397.469,371.578,395.835,321.608,391.78C267.364,387.378,193.733,376.5,152.764,367.593C128.737,362.369,111.995,358.149,96.482,351.05C84.258,345.455,72.852,339.447,65.861,331.313C59.89,324.367,57.643,317.618,54.987,307.071C50.589,289.598,55.914,251.517,49.771,234.343C45.851,223.384,39.752,216.802,32.63,210.101C25.39,203.288,6.543,193.939,6.543,193.939" stroke="#0ea5e9" stroke-width="2" fill="none" stroke-linecap="round" stroke-miterlimit="4"></path><path d="M699.497,489.332C705.983,467.267,712.883,445.036,723.618,429.26C732.496,416.213,742.54,406.911,755.779,398.834C771.146,389.459,788.32,384.417,812.06,379.055C850.158,370.451,911.967,364.693,964.824,362.753C1021.556,360.67,1088.498,361.789,1141.709,368.576C1186.43,374.281,1237.58,385.928,1263.687,395.96C1277.088,401.109,1284.738,405.101,1292.386,412.121C1299.605,418.747,1307.061,427.893,1308.918,436.364C1310.617,444.117,1308.133,452.905,1304.832,460.606C1301.168,469.154,1296.081,475.699,1286.675,484.848C1268.584,502.445,1229.991,529.054,1195.185,549.495C1153.932,573.723,1100.81,598.828,1053.266,617.509C1007.921,635.325,959.468,650.547,916.583,660.067C879.77,668.239,844.654,673.639,812.06,674.27C783.538,674.823,750.251,672.125,731.658,666.503C720.839,663.232,714.268,659.343,707.538,653.608C700.905,647.957,695.401,641.944,691.457,632.469C685.565,618.313,682.722,595.035,683.27,573.737C683.93,548.096,692.024,514.757,699.497,489.332" stroke="#0ea5e9" stroke-width="2" fill="none" stroke-linecap="round" stroke-miterlimit="4"></path><path d="M231.21,4C231.21,4,211.916,74.219,214.209,96.97C215.601,110.781,218.48,121.664,227.186,129.293C238.221,138.963,257.066,139.259,281.407,143.139C329.402,150.79,442.408,148.758,498.492,157.518C534.792,163.188,564.005,170.185,586.935,179.513C602.974,186.039,614.572,192.647,625.436,202.02C635.909,211.056,646.494,222.141,651.365,234.343C656.184,246.414,657.203,262.351,654.748,274.747C652.425,286.483,647.174,296.656,638.146,307.071C625.381,321.795,602.659,338.324,578.894,349.085C549.992,362.172,510.718,369.336,474.372,373.952C435.86,378.843,395.289,378.929,353.769,376.255C308.936,373.368,251.416,364.737,214.659,355.556C189.537,349.28,168.842,343.158,152.764,333.533C140.318,326.081,129.411,316.618,123.613,307.071C118.986,299.452,117.958,293.362,117.219,282.828C115.887,263.852,130.18,220.734,126.774,202.02C124.801,191.181,122.913,184.559,114.22,177.778C96.843,164.222,8.04,152.692,8.04,152.692" stroke="#0ea5e9" stroke-width="2" fill="none" stroke-linecap="round" stroke-miterlimit="4"></path><path d="M4,711.945C4,711.945,124.249,695.537,184.925,694.594C246.191,693.642,321.04,699.987,369.849,706.546C402.334,710.912,426.178,716.204,450.251,723.066C470.654,728.882,490.541,734.86,505.582,743.434C517.719,750.353,529.389,758.116,535.346,767.677C540.529,775.997,541.889,796,541.889,796" stroke="#0ea5e9" stroke-width="2" fill="none" stroke-linecap="round" stroke-miterlimit="4"></path><path d="M740.347,484.848C749.385,467.165,762.68,449.436,777.514,436.364C792.044,423.56,809.182,414.813,828.141,406.845C849.594,397.828,872.672,391.894,900.503,386.98C937.003,380.536,986.947,376.716,1029.146,376.459C1069.986,376.211,1112.992,378.193,1149.749,384.845C1181.858,390.657,1219.135,401.287,1238.191,411.11C1248.668,416.511,1255.15,421.999,1260.168,428.283C1264.184,433.312,1267.04,438.376,1267.781,444.444C1268.653,451.583,1266.473,461.004,1262.938,468.687C1258.992,477.264,1253.382,483.968,1243.916,492.929C1226.978,508.964,1193.68,531.892,1163.084,549.495C1127.343,570.059,1081.732,590.964,1040.908,606.061C1002.235,620.362,961.895,632.268,924.623,638.847C891.269,644.734,856.894,648.344,828.141,646.059C804.372,644.17,780.812,640.16,763.819,630.781C749.514,622.885,737.208,611.844,730.36,597.98C722.807,582.689,721.83,560.105,723.41,541.414C725.019,522.389,731.462,502.233,740.347,484.848" stroke="#0ea5e9" stroke-width="2" fill="none" stroke-linecap="round" stroke-miterlimit="4"></path><path d="M180.963,4C180.963,4,173.701,34.676,165.595,48.485C156.794,63.477,143.093,79.449,128.643,89.858C114.582,99.987,98.519,106.079,80.402,110.638C59.098,116,8.04,116.901,8.04,116.901" stroke="#0ea5e9" stroke-width="2" fill="none" stroke-linecap="round" stroke-miterlimit="4"></path><path d="M4,736.432C4,736.432,95.519,716.93,144.724,713.639C198.283,710.057,261.457,711.159,313.568,718.2C359.721,724.436,414.169,738.329,442.211,749.901C457.134,756.059,465.939,761.11,474.372,769.228C482.158,776.724,491.881,796,491.881,796" stroke="#0ea5e9" stroke-width="2" fill="none" stroke-linecap="round" stroke-miterlimit="4"></path><path d="M204.574,226.263C214.308,215.191,227.004,206.762,241.206,199.83C257.383,191.933,276.396,187.36,297.487,183.452C323.44,178.643,356.432,176.594,385.93,176.071C415.393,175.549,447.373,176.7,474.372,180.304C497.659,183.412,519.28,187.137,538.693,194.524C556.474,201.289,575.627,209.665,586.935,221.48C596.736,231.722,605.261,245.877,605.58,258.586C605.908,271.692,596.985,287.545,587.752,298.99C577.858,311.254,562.155,320.777,546.734,328.812C530.025,337.518,511.161,343.468,490.452,348.217C466.301,353.755,438.108,357.074,410.05,357.814C379.39,358.623,344.112,356.2,313.568,351.431C285.207,347.003,254.328,340.419,232.665,331.313C216.465,324.503,201.128,315.185,192.965,306.857C187.822,301.611,185.366,297.037,183.574,290.909C181.521,283.893,180.618,275.465,182.676,266.667C185.509,254.557,194.755,237.43,204.574,226.263" stroke="#0ea5e9" stroke-width="2" fill="none" stroke-linecap="round" stroke-miterlimit="4"></path><path d="M785.705,476.768C795.085,463.836,806.408,453.883,820.101,444.307C835.897,433.26,855.987,423.614,876.382,416.134C898.568,407.997,922.706,402.546,948.744,398.505C978.415,393.902,1013.082,391.446,1045.226,391.847C1077.403,392.248,1113.923,395.073,1141.709,400.928C1163.752,405.573,1185.684,412.666,1199.576,420.202C1208.637,425.117,1215.244,430.349,1219.871,436.364C1223.687,441.324,1227.01,445.94,1226.956,452.525C1226.872,462.976,1218.907,480.092,1208.459,492.929C1194.192,510.457,1167.309,526.871,1141.709,541.986C1111.525,559.807,1072.597,577.567,1037.186,590.292C1002.88,602.621,965.474,612.823,932.663,617.769C904.351,622.038,876.338,623.893,852.261,621.165C831.987,618.867,812.081,614.857,797.234,606.061C784.053,598.251,771.762,586.854,765.957,573.737C759.924,560.105,759.825,541.036,762.831,525.253C765.989,508.673,775.717,490.536,785.705,476.768" stroke="#0ea5e9" stroke-width="2" fill="none" stroke-linecap="round" stroke-miterlimit="4"></path><path d="M116.982,4C116.982,4,111.621,23.929,105.846,32.323C99.7,41.255,92.041,49.023,80.402,55.563C63.188,65.234,8.04,76.657,8.04,76.657" stroke="#0ea5e9" stroke-width="2" fill="none" stroke-linecap="round" stroke-miterlimit="4"></path><path d="M4,766.983C4,766.983,73.381,742.457,112.563,736.498C156.96,729.747,211.427,728.818,257.286,732.436C299.506,735.767,348.561,745.282,377.889,755.073C395.981,761.114,409.111,767.792,419.752,775.758C427.921,781.874,438.4,796,438.4,796" stroke="#0ea5e9" stroke-width="2" fill="none" stroke-linecap="round" stroke-miterlimit="4"></path><path d="M280.649,234.343C290.811,227.306,300.727,222.529,315.98,218.182C340.807,211.105,390.101,205.61,418.09,205.215C437.581,204.939,451.638,206.679,467.764,210.101C483.793,213.502,502.419,219.087,514.573,225.621C523.597,230.472,531.098,235.423,535.942,242.424C540.626,249.195,544.26,258.719,543.599,266.667C542.916,274.89,537.753,283.579,531.232,290.909C522.971,300.195,508.703,308.828,494.9,315.152C479.456,322.227,460.226,326.763,442.211,329.776C423.917,332.836,405.288,333.794,385.93,333.197C365.176,332.557,341.295,330.11,321.608,325.287C303.98,320.968,285.015,315.521,272.942,307.071C263.483,300.45,254.618,291.508,252.206,282.828C250.089,275.209,252.377,266.094,256.258,258.586C260.848,249.704,271.089,240.964,280.649,234.343" stroke="#0ea5e9" stroke-width="2" fill="none" stroke-linecap="round" stroke-miterlimit="4"></path><path d="M820.101,487.313C828.466,475.866,839.776,466.293,852.261,457.535C866.156,447.787,882.866,439.452,900.503,432.634C920.034,425.083,941.998,419.347,964.824,415.433C989.946,411.126,1019.144,408.821,1045.226,409.123C1069.995,409.409,1095.937,411.243,1117.588,416.49C1136.309,421.027,1156.934,427.16,1168.211,436.364C1176.433,443.074,1183.187,451.722,1183.951,460.606C1184.794,470.404,1178.135,482.55,1170.121,492.929C1159.15,507.138,1138.097,521.06,1118.067,533.333C1094.74,547.626,1064.549,561.267,1037.186,571.349C1010.761,581.085,982.624,588.933,956.784,593.312C933.5,597.257,910.316,599.6,889.273,597.98C870.4,596.526,850.616,593.6,836.181,585.953C823.568,579.271,811.266,568.48,805.815,557.576C800.995,547.932,800.49,536.198,802.316,525.253C804.388,512.827,811.921,498.506,820.101,487.313" stroke="#0ea5e9" stroke-width="2" fill="none" stroke-linecap="round" stroke-miterlimit="4"></path><path d="M34.015,796C34.015,796,71.867,772.184,96.482,764.938C127.846,755.704,172.227,752.244,209.045,752.373C244.539,752.497,283.797,755.9,313.568,764.78C337.862,772.027,376.323,796,376.323,796" stroke="#0ea5e9" stroke-width="2" fill="none" stroke-linecap="round" stroke-miterlimit="4"></path><path d="M402.01,254.793C413.526,254.923,434.184,260.913,435.859,266.667C437.127,271.024,429.143,279.37,423.134,282.828C415.944,286.967,402.911,287.183,393.97,286.956C386.296,286.761,377.424,286.619,372.672,282.828C368.384,279.408,363.621,270.962,365.541,266.667C368.369,260.338,390.102,254.658,402.01,254.793" stroke="#0ea5e9" stroke-width="2" fill="none" stroke-linecap="round" stroke-miterlimit="4"></path><path d="M862.861,492.929C869.739,484.162,877.638,476.327,890.41,468.687C911.13,456.293,949.111,440.714,980.905,434.983C1013.982,429.02,1060.833,430.613,1085.427,434.964C1099.504,437.454,1109.208,440.579,1117.588,446.716C1125.131,452.241,1133.348,460.833,1134.528,468.687C1135.668,476.273,1131.135,485.026,1125.445,492.929C1117.435,504.056,1100.229,515.958,1085.586,525.253C1070.322,534.941,1053.339,542.647,1035.37,549.495C1015.969,556.889,993.337,563.722,972.864,567.364C953.789,570.756,933.689,572.718,916.583,571.512C901.977,570.482,887.506,568.392,876.382,562.761C866.531,557.774,856.341,549.703,852.184,541.414C848.576,534.218,848.608,525.029,850.199,517.172C851.887,508.84,856.923,500.498,862.861,492.929" stroke="#0ea5e9" stroke-width="2" fill="none" stroke-linecap="round" stroke-miterlimit="4"></path><path d="M129.147,796C129.147,796,182.915,782.452,209.045,782.614C234.26,782.77,283.285,796,283.285,796" stroke="#0ea5e9" stroke-width="2" fill="none" stroke-linecap="round" stroke-miterlimit="4"></path><path d="M954.121,476.768C968.473,469.707,988.217,464.558,1005.025,463.327C1021.076,462.15,1043.007,462.846,1052.741,468.687C1058.96,472.419,1064.453,478.832,1063.839,484.848C1062.894,494.127,1044.093,509.089,1030.23,517.172C1014.523,526.33,991.281,533.204,972.864,534.278C956.207,535.25,931.857,533.78,924.623,525.835C919.465,520.169,919.341,508.455,922.643,501.01C926.814,491.606,941.654,482.901,954.121,476.768" stroke="#0ea5e9" stroke-width="2" fill="none" stroke-linecap="round" stroke-miterlimit="4"></path></svg>
